<?xml version="1.0" encoding="UTF-8"?>
<svg fill='#ffffff' fill-opacity="0.8" width="752pt" height="752pt" version="1.1" viewBox="0 0 752 752" xmlns="http://www.w3.org/2000/svg">
 <defs>
  <clipPath id="a">
   <path d="m139.21 139.21h473.58v473.58h-473.58z"/>
  </clipPath>
 </defs>
 <g clip-path="url(#a)">
  <path d="m376 139.21c-130.77 0-236.79 106.02-236.79 236.79 0 130.78 106.02 236.79 236.79 236.79 130.78 0 236.79-106.02 236.79-236.79 0.003907-130.77-106.01-236.79-236.79-236.79zm86.266 251.22-111.83 111.81c-7.9375 7.9727-20.867 7.9727-28.836 0-7.9531-7.9609-7.9531-20.879 0-28.852l97.402-97.383-97.406-97.402c-7.9727-7.9648-7.9531-20.883 0-28.852 3.9805-3.9844 9.2109-5.9805 14.434-5.9805s10.453 1.9922 14.441 5.9805l111.79 111.8c7.9688 7.9727 7.9688 20.91 0 28.879z"/>
 </g>
</svg>
