<?xml version="1.0" encoding="UTF-8"?>
<svg fill='#ffffff' fill-opacity="0.8" width="24" height="24" viewBox="0 0 752 752" xmlns="http://www.w3.org/2000/svg">
 <defs>
  <clipPath id="a">
   <path d="m139.21 139.21h473.58v473.58h-473.58z"/>
  </clipPath>
 </defs>
 <g clip-path="url(#a)">
  <path d="m139.21 376c0 130.78 106.02 236.79 236.79 236.79 130.77 0 236.79-106.02 236.79-236.79s-106.02-236.79-236.79-236.79c-130.77 0-236.79 106.02-236.79 236.79zm150.52-14.445 111.79-111.8c3.9844-3.9844 9.2109-5.9805 14.441-5.9805 5.2305 0 10.453 1.9922 14.441 5.9805 7.9492 7.9648 7.9727 20.883 0 28.852l-97.41 97.402 97.402 97.383c7.9492 7.9727 7.9492 20.891 0 28.852-7.9727 7.9727-20.902 7.9727-28.836 0l-111.83-111.81c-7.9727-7.9688-7.9727-20.906 0-28.879z"/>
 </g>
</svg>
