<svg width="25" height="25" viewBox="0 0 25 25" fill="none" xmlns="http://www.w3.org/2000/svg">
<path d="M5.05273 13.572C5.05273 12.2143 5.05273 11.5354 5.3272 10.9387C5.60166 10.3419 6.1171 9.90013 7.14799 9.01651L8.14799 8.15937C10.0113 6.56224 10.943 5.76367 12.0527 5.76367C13.1625 5.76367 14.0942 6.56224 15.9575 8.15937L16.9575 9.01651C17.9884 9.90013 18.5038 10.3419 18.7783 10.9387C19.0527 11.5354 19.0527 12.2143 19.0527 13.572V17.8124C19.0527 19.6981 19.0527 20.6409 18.4669 21.2267C17.8812 21.8124 16.9384 21.8124 15.0527 21.8124H9.05273C7.16712 21.8124 6.22431 21.8124 5.63852 21.2267C5.05273 20.6409 5.05273 19.6981 5.05273 17.8124V13.572Z" stroke="#1DC6D1" stroke-width="2"/>
<path d="M14.5527 21.8125V16.8125C14.5527 16.2602 14.105 15.8125 13.5527 15.8125H10.5527C10.0004 15.8125 9.55273 16.2602 9.55273 16.8125V21.8125" stroke="#1DC6D1" stroke-width="2" stroke-linecap="round" stroke-linejoin="round"/>
</svg>
