<svg width="25" height="25" viewBox="0 0 25 25" fill="none" xmlns="http://www.w3.org/2000/svg">
<path d="M12.4508 20.6165L12.9112 21.5042L12.9112 21.5042L12.4508 20.6165ZM11.6547 20.6165L11.1943 21.5042L11.1943 21.5042L11.6547 20.6165ZM18.0527 11.8125C18.0527 13.9583 16.9606 15.7284 15.5977 17.1031C14.2357 18.4769 12.6869 19.3675 11.9903 19.7288L12.9112 21.5042C13.6975 21.0963 15.4497 20.093 17.018 18.5112C18.5853 16.9303 20.0527 14.6831 20.0527 11.8125H18.0527ZM12.0527 5.8125C15.3664 5.8125 18.0527 8.49879 18.0527 11.8125H20.0527C20.0527 7.39422 16.471 3.8125 12.0527 3.8125V5.8125ZM6.05273 11.8125C6.05273 8.49879 8.73903 5.8125 12.0527 5.8125V3.8125C7.63446 3.8125 4.05273 7.39422 4.05273 11.8125H6.05273ZM12.1151 19.7288C11.4185 19.3675 9.86976 18.4769 8.50776 17.1031C7.14484 15.7284 6.05273 13.9583 6.05273 11.8125H4.05273C4.05273 14.6831 5.52014 16.9303 7.08747 18.5112C8.65572 20.093 10.4079 21.0963 11.1943 21.5042L12.1151 19.7288ZM11.9903 19.7288C12.0041 19.7216 12.026 19.7148 12.0527 19.7148C12.0795 19.7148 12.1013 19.7216 12.1151 19.7288L11.1943 21.5042C11.7358 21.7851 12.3696 21.7851 12.9112 21.5042L11.9903 19.7288ZM14.0527 11.8125C14.0527 12.9171 13.1573 13.8125 12.0527 13.8125V15.8125C14.2619 15.8125 16.0527 14.0216 16.0527 11.8125H14.0527ZM12.0527 9.8125C13.1573 9.8125 14.0527 10.7079 14.0527 11.8125H16.0527C16.0527 9.60336 14.2619 7.8125 12.0527 7.8125V9.8125ZM10.0527 11.8125C10.0527 10.7079 10.9482 9.8125 12.0527 9.8125V7.8125C9.8436 7.8125 8.05273 9.60336 8.05273 11.8125H10.0527ZM12.0527 13.8125C10.9482 13.8125 10.0527 12.9171 10.0527 11.8125H8.05273C8.05273 14.0216 9.8436 15.8125 12.0527 15.8125V13.8125Z" fill="#1DC6D1"/>
</svg>
