<svg width="25" height="25" viewBox="0 0 25 25" fill="none" xmlns="http://www.w3.org/2000/svg">
<path d="M17.7598 14.5196L20.408 17.1677C20.7641 17.5238 20.7641 18.1012 20.408 18.4573C18.4827 20.3825 15.4349 20.5991 13.2567 18.9655L11.6813 17.7839C9.93778 16.4763 8.38895 14.9275 7.08131 13.1839L5.89974 11.6085C4.26614 9.43038 4.48275 6.38249 6.40797 4.45727C6.76406 4.10117 7.34141 4.10117 7.6975 4.45727L10.3456 7.10539C10.7362 7.49592 10.7362 8.12908 10.3456 8.51961L9.32448 9.54075C9.1622 9.70304 9.12196 9.95096 9.2246 10.1562C10.4113 12.5296 12.3357 14.454 14.709 15.6406C14.9143 15.7433 15.1622 15.703 15.3245 15.5408L16.3456 14.5196C16.7362 14.1291 17.3693 14.1291 17.7598 14.5196Z" stroke="#1DC6D1" stroke-width="2"/>
</svg>
